#!OML:ASF Y:\EmotionMaleHayes\Project 1\Capture day 1\Session 1\Male1.ASF
:FULLY-SPECIFIED
:DEGREES
447
root 35.1008 17.6982 -8.9093 43.0553 39.7428 -332.676
lowerback 29.2752 2.49349 0.0492809
upperback 8.04227 3.41436 -1.1172
thorax -6.97665 1.78348 -2.45246
lowerneck -21.264 0.245591 -0.167585
upperneck 11.7142 1.24231 -4.93469
head 7.08505 0.122198 -1.44736
rclavicle 9.54166e-015 5.40694e-014
rhumerus -51.8721 -9.63545 -37.4782
rradius 36.701
rwrist -26.6354
rhand -29.2153 -45.6214
rfingers 7.12502
rthumb -2.55963 -75.5858
lclavicle 9.54166e-015 5.40694e-014
lhumerus -39.9697 -10.9725 45.2082
lradius 48.0913
lwrist -12.8487
lhand 3.34712 -23.4486
lfingers 7.12502
lthumb 28.7922 4.35072
rfemur -40.5883 -23.484 -1.95732
rtibia 82.1461
rfoot -17.7097 8.4103
rtoes 10.8337
lfemur -17.1912 2.20059 -9.81024
ltibia 5.08874
lfoot 6.20493 2.14311
ltoes -8.34744
448
root 35.1168 17.7516 -8.80206 43.8901 39.2244 -332.7
lowerback 28.6227 2.60889 -0.0548331
upperback 8.03205 3.54079 -0.937213
thorax -6.69095 1.84211 -2.19978
lowerneck -21.5399 0.127336 -0.0553374
upperneck 11.3334 1.08481 -5.199
head 7.00366 0.0310299 -1.57017
rclavicle -6.04305e-014 1.28812e-013
rhumerus -52.1618 -10.3986 -34.056
rradius 37.8969
rwrist -26.6765
rhand -28.5246 -44.5847
rfingers 7.12502
rthumb -1.89256 -74.556
lclavicle -6.04305e-014 1.28812e-013
lhumerus -40.7937 -12.3133 47.9733
lradius 48.3518
lwrist -8.99999
lhand 2.16708 -22.4757
lfingers 7.12502
lthumb 27.6644 5.50995
rfemur -41.1433 -23.0616 -3.99447
rtibia 77.7966
rfoot -22.9846 -15.9402
rtoes 8.53528
lfemur -16.905 -0.235018 -8.29685
ltibia 6.2347
lfoot 5.43079 2.08947
ltoes -8.69624
449
root 35.1335 17.7896 -8.69266 45.1141 38.4053 -332.379
lowerback 27.8239 2.73405 -0.654124
upperback 7.91899 3.5353 -0.890244
thorax -6.47182 1.83739 -1.76455
lowerneck -20.6561 0.569661 -0.208127
upperneck 10.7274 1.72872 -5.47419
head 6.684 0.335678 -1.55149
rclavicle 3.18055e-015 -1.11319e-014
rhumerus -52.0107 -10.2139 -31.3854
rradius 39.5381
rwrist -27.9214
rhand -27.9172 -44.1209
rfingers 7.12502
rthumb -1.30594 -74.0967
lclavicle 3.18055e-015 -1.11319e-014
lhumerus -41.9037 -13.5524 50.7451
lradius 48.7362
lwrist -5.22519
lhand 0.435668 -21.5
lfingers 7.12502
lthumb 26.0076 6.74012
rfemur -41.7201 -23.1613 -6.38324
rtibia 73.9022
rfoot -23.1205 -17.1786
rtoes 5.97976
lfemur -16.916 -2.59925 -7.42908
ltibia 7.87205
lfoot 4.44215 1.93468
ltoes -7.99293
450
root 35.1622 17.8098 -8.60625 44.214 38.4685 -334.059
lowerback 27.9461 2.58419 0.451217
upperback 7.90714 3.66028 -0.507648
thorax -6.50291 1.88434 -2.02075
lowerneck -20.3387 1.02796 0.26057
upperneck 10.6189 2.33008 -6.23152
head 6.63301 0.586941 -1.80314
rclavicle 3.18055e-014 -8.74653e-014
rhumerus -51.4818 -10.0493 -28.8279
rradius 41.1913
rwrist -28.8048
rhand -27.2313 -43.9148
rfingers 7.12502
rthumb -0.64351 -73.8936
lclavicle 3.18055e-014 -8.74653e-014
lhumerus -43.3656 -14.6053 53.4589
lradius 49.2671
lwrist -1.41435
lhand -1.59491 -20.6347
lfingers 7.12502
lthumb 24.0619 7.87682
rfemur -41.7764 -20.9885 -6.72556
rtibia 69.9604
rfoot -24.0546 -18.1583
rtoes 8.26495
lfemur -15.9495 -4.12925 -4.55648
ltibia 9.59527
lfoot 4.06009 1.49332
ltoes -7.92046
451
root 35.1859 17.8118 -8.51909 43.67 38.3479 -335.251
lowerback 27.965 2.36097 0.998145
upperback 7.88597 3.53666 -0.283406
thorax -6.52299 1.81786 -2.04779
lowerneck -20.768 1.54874 1.16526
upperneck 11.0405 2.92941 -6.95871
head 6.88835 0.831601 -2.12021
rclavicle 3.81667e-014 -4.45278e-014
rhumerus -50.7194 -10.1344 -26.3814
rradius 42.926
rwrist -28.9728
rhand -25.9295 -43.3735
rfingers 7.12502
rthumb 0.613792 -73.3523
lclavicle 3.81667e-014 -4.45278e-014
lhumerus -45.0243 -15.3627 55.9337
lradius 49.9721
lwrist 2.35682
lhand -3.51096 -20.0944
lfingers 7.12502
lthumb 22.2235 8.64795
rfemur -41.5973 -19.8914 -7.52116
rtibia 65.7407
rfoot -25.0165 -18.601
rtoes 10.7193
lfemur -15.1561 -5.21422 -2.48155
ltibia 11.4896
lfoot 4.38315 1.04891
ltoes -7.33711
452
root 35.2056 17.7999 -8.43295 42.9138 38.1924 -336.588
lowerback 28.0069 2.09138 1.71369
upperback 7.98964 3.39215 -0.202066
thorax -6.39633 1.74842 -2.31885
lowerneck -20.3244 2.2638 1.91027
upperneck 10.6173 3.71934 -7.32785
head 6.7341 1.23021 -2.26587
rclavicle -3.49861e-014 -7.31528e-014
rhumerus -49.0811 -11.2575 -23.786
rradius 43.2465
rwrist -28.409
rhand -24.3962 -42.1478
rfingers 7.12502
rthumb 2.09468 -72.1173
lclavicle -3.49861e-014 -7.31528e-014
lhumerus -46.3699 -15.7968 58.0651
lradius 50.6944
lwrist 5.57116
lhand -5.59346 -19.7131
lfingers 7.12502
lthumb 20.2231 9.25415
rfemur -41.3749 -18.8484 -8.01885
rtibia 61.4935
rfoot -25.4181 -19.7349
rtoes 9.46168
lfemur -14.1983 -6.01916 -0.452787
ltibia 13.6012
lfoot 4.80171 0.940414
ltoes -5.11717
453
root 35.2211 17.7733 -8.35529 42.2618 37.9063 -337.725
lowerback 27.9962 1.8237 2.36239
upperback 8.2061 3.22284 -0.253035
thorax -6.11663 1.67684 -2.68389
lowerneck -20.2624 2.8976 3.08161
upperneck 10.3369 4.38072 -8.21871
head 6.71535 1.5285 -2.66763
rclavicle 8.26944e-014 -3.33958e-014
rhumerus -47.6789 -12.9881 -21.3094
rradius 44.2964
rwrist -27.8648
rhand -23.0389 -41.6722
rfingers 7.12502
rthumb 3.40554 -71.6247
lclavicle 8.26944e-014 -3.33958e-014
lhumerus -47.3536 -15.9836 60.015
lradius 51.4494
lwrist 8.46922
lhand -7.71282 -19.3469
lfingers 7.12502
lthumb 18.1851 9.82305
rfemur -41.1795 -17.9031 -8.54979
rtibia 57.4501
rfoot -25.4535 -20.9366
rtoes 7.47672
lfemur -13.3192 -6.25294 1.23649
ltibia 16.1112
lfoot 5.56348 0.170404
ltoes -5.45967
454
root 35.1864 17.7378 -8.23527 46.9665 35.6498 -333.54
lowerback 26.0122 1.9125 -1.98137
upperback 7.90086 2.15663 -1.10926
thorax -5.67044 1.17612 -0.736197
lowerneck -19.867 3.6294 4.19057
upperneck 9.86174 5.22103 -9.31955
head 6.61312 1.90705 -3.10702
rclavicle -3.18055e-015 -2.22639e-014
rhumerus -46.105 -14.6312 -19.1579
rradius 45.7639
rwrist -27.6927
rhand -21.9426 -41.6287
rfingers 7.12502
rthumb 4.4642 -71.5616
lclavicle -3.18055e-015 -2.22639e-014
lhumerus -48.4393 -15.8874 61.9882
lradius 52.2733
lwrist 11.3092
lhand -9.64354 -19.0948
lfingers 7.12502
lthumb 16.3269 10.2379
rfemur -42.3803 -20.6758 -14.0257
rtibia 54.2352
rfoot -25.2447 -21.3566
rtoes 7.27722
lfemur -15.464 -8.41024 -2.55414
ltibia 19.2024
lfoot 6.09354 0.0299867
ltoes -7.75254
455
root 35.1723 17.6978 -8.17224 45.9654 36.9992 -335.624
lowerback 26.4398 1.18007 -0.0586746
upperback 7.74554 1.73177 -0.580206
thorax -6.01874 0.962109 -1.146
lowerneck -19.2988 4.37746 5.16733
upperneck 9.32248 6.04445 -9.93196
head 6.45725 2.32075 -3.36883
rclavicle 9.54166e-015 -4.45278e-014
rhumerus -44.1422 -15.8149 -17.63
rradius 47.3742
rwrist -28.2973
rhand -21.9762 -41.4586
rfingers 7.12502
rthumb 4.43179 -71.3923
lclavicle 9.54166e-015 -4.45278e-014
lhumerus -49.8164 -15.358 63.8219
lradius 53.0769
lwrist 13.8185
lhand -11.7585 -18.9924
lfingers 7.12502
lthumb 14.2897 10.4959
rfemur -42.3569 -19.9793 -12.1716
rtibia 51.0946
rfoot -25.4046 -21.4851
rtoes 8.52718
lfemur -15.5236 -9.24328 1.10738
ltibia 22.4118
lfoot 6.58637 -0.0779278
ltoes -5.01843
456
root 35.1722 17.6426 -8.08685 45.3083 37.6231 -336.495
lowerback 26.9447 0.465268 0.830516
upperback 7.79137 1.06823 -0.526938
thorax -6.21074 0.645832 -1.40493
lowerneck -18.6646 5.16029 6.15329
upperneck 8.75671 6.89762 -10.3803
head 6.29184 2.76571 -3.57729
rclavicle 0 -3.81667e-014
rhumerus -42.2488 -17.0706 -16.7633
rradius 49.5481
rwrist -29.3812
rhand -22.5889 -41.5053
rfingers 7.12502
rthumb 3.84008 -71.4504
lclavicle 0 -3.81667e-014
lhumerus -50.8324 -14.3707 65.0475
lradius 53.7837
lwrist 15.6736
lhand -12.6024 -19.5864
lfingers 7.12502
lthumb 13.4764 9.95756
rfemur -41.5406 -19.6379 -11.7916
rtibia 47.5549
rfoot -23.7271 -21.1621
rtoes 3.795
lfemur -15.083 -10.342 2.98383
ltibia 25.7168
lfoot 7.10655 -0.218465
ltoes 0.316787
